<svg width="143" height="24" viewBox="0 0 143 24" fill="none" xmlns="http://www.w3.org/2000/svg">
<path d="M13.0485 15.88V19H0.0405002V2.2H12.7365V5.32H3.9045V8.968H11.7045V11.992H3.9045V15.88H13.0485ZM22.1923 5.896C24.1923 5.896 25.7283 6.376 26.8003 7.336C27.8723 8.28 28.4083 9.712 28.4083 11.632V19H24.9043V17.392C24.2003 18.592 22.8883 19.192 20.9683 19.192C19.9763 19.192 19.1123 19.024 18.3763 18.688C17.6563 18.352 17.1043 17.888 16.7203 17.296C16.3363 16.704 16.1443 16.032 16.1443 15.28C16.1443 14.08 16.5923 13.136 17.4883 12.448C18.4003 11.76 19.8003 11.416 21.6883 11.416H24.6643C24.6643 10.6 24.4163 9.976 23.9203 9.544C23.4243 9.096 22.6803 8.872 21.6883 8.872C21.0003 8.872 20.3203 8.984 19.6483 9.208C18.9923 9.416 18.4323 9.704 17.9683 10.072L16.6243 7.456C17.3283 6.96 18.1683 6.576 19.1443 6.304C20.1363 6.032 21.1523 5.896 22.1923 5.896ZM21.9043 16.672C22.5443 16.672 23.1123 16.528 23.6083 16.24C24.1043 15.936 24.4563 15.496 24.6643 14.92V13.6H22.0963C20.5603 13.6 19.7923 14.104 19.7923 15.112C19.7923 15.592 19.9763 15.976 20.3443 16.264C20.7283 16.536 21.2483 16.672 21.9043 16.672ZM36.5728 7.792C37.0208 7.168 37.6208 6.696 38.3728 6.376C39.1408 6.056 40.0208 5.896 41.0128 5.896V9.352C40.5968 9.32 40.3168 9.304 40.1728 9.304C39.1008 9.304 38.2608 9.608 37.6528 10.216C37.0448 10.808 36.7408 11.704 36.7408 12.904V19H32.9968V6.088H36.5728V7.792ZM44.439 1.192H48.183V19H44.439V1.192ZM65.6737 6.088L59.8417 19.792C59.2497 21.28 58.5137 22.328 57.6337 22.936C56.7697 23.544 55.7217 23.848 54.4897 23.848C53.8177 23.848 53.1537 23.744 52.4977 23.536C51.8417 23.328 51.3057 23.04 50.8897 22.672L52.2577 20.008C52.5457 20.264 52.8737 20.464 53.2417 20.608C53.6257 20.752 54.0017 20.824 54.3697 20.824C54.8817 20.824 55.2977 20.696 55.6177 20.44C55.9377 20.2 56.2257 19.792 56.4817 19.216L56.5297 19.096L50.9377 6.088H54.8017L58.4257 14.848L62.0738 6.088H65.6737ZM84.0304 5.896C85.2304 5.896 86.3184 6.176 87.2944 6.736C88.2864 7.28 89.0624 8.056 89.6224 9.064C90.1824 10.056 90.4624 11.216 90.4624 12.544C90.4624 13.872 90.1824 15.04 89.6224 16.048C89.0624 17.04 88.2864 17.816 87.2944 18.376C86.3184 18.92 85.2304 19.192 84.0304 19.192C82.2544 19.192 80.9024 18.632 79.9744 17.512V19H76.3984V1.192H80.1424V7.456C81.0864 6.416 82.3824 5.896 84.0304 5.896ZM83.3824 16.12C84.3424 16.12 85.1264 15.8 85.7344 15.16C86.3584 14.504 86.6704 13.632 86.6704 12.544C86.6704 11.456 86.3584 10.592 85.7344 9.952C85.1264 9.296 84.3424 8.968 83.3824 8.968C82.4224 8.968 81.6304 9.296 81.0064 9.952C80.3984 10.592 80.0944 11.456 80.0944 12.544C80.0944 13.632 80.3984 14.504 81.0064 15.16C81.6304 15.8 82.4224 16.12 83.3824 16.12ZM94.1687 6.088H97.9127V19H94.1687V6.088ZM96.0407 4.288C95.3527 4.288 94.7927 4.088 94.3607 3.688C93.9287 3.288 93.7127 2.792 93.7127 2.2C93.7127 1.608 93.9287 1.112 94.3607 0.711999C94.7927 0.311999 95.3527 0.111999 96.0407 0.111999C96.7287 0.111999 97.2887 0.303999 97.7207 0.688C98.1527 1.072 98.3687 1.552 98.3687 2.128C98.3687 2.752 98.1527 3.272 97.7207 3.688C97.2887 4.088 96.7287 4.288 96.0407 4.288ZM106.163 7.792C106.611 7.168 107.211 6.696 107.963 6.376C108.731 6.056 109.611 5.896 110.603 5.896V9.352C110.187 9.32 109.907 9.304 109.763 9.304C108.691 9.304 107.851 9.608 107.243 10.216C106.635 10.808 106.331 11.704 106.331 12.904V19H102.587V6.088H106.163V7.792ZM127.064 1.192V19H123.488V17.512C122.56 18.632 121.216 19.192 119.456 19.192C118.24 19.192 117.136 18.92 116.144 18.376C115.168 17.832 114.4 17.056 113.84 16.048C113.28 15.04 113 13.872 113 12.544C113 11.216 113.28 10.048 113.84 9.04C114.4 8.032 115.168 7.256 116.144 6.712C117.136 6.168 118.24 5.896 119.456 5.896C121.104 5.896 122.392 6.416 123.32 7.456V1.192H127.064ZM120.104 16.12C121.048 16.12 121.832 15.8 122.456 15.16C123.08 14.504 123.392 13.632 123.392 12.544C123.392 11.456 123.08 10.592 122.456 9.952C121.832 9.296 121.048 8.968 120.104 8.968C119.144 8.968 118.352 9.296 117.728 9.952C117.104 10.592 116.792 11.456 116.792 12.544C116.792 13.632 117.104 14.504 117.728 15.16C118.352 15.8 119.144 16.12 120.104 16.12ZM136.074 19.192C135.002 19.192 133.954 19.064 132.93 18.808C131.906 18.536 131.09 18.2 130.482 17.8L131.73 15.112C132.306 15.48 133.002 15.784 133.818 16.024C134.634 16.248 135.434 16.36 136.218 16.36C137.802 16.36 138.594 15.968 138.594 15.184C138.594 14.816 138.378 14.552 137.946 14.392C137.514 14.232 136.85 14.096 135.954 13.984C134.898 13.824 134.026 13.64 133.338 13.432C132.65 13.224 132.05 12.856 131.538 12.328C131.042 11.8 130.794 11.048 130.794 10.072C130.794 9.256 131.026 8.536 131.49 7.912C131.97 7.272 132.658 6.776 133.554 6.424C134.466 6.072 135.538 5.896 136.77 5.896C137.682 5.896 138.586 6 139.482 6.208C140.394 6.4 141.146 6.672 141.738 7.024L140.49 9.688C139.354 9.048 138.114 8.728 136.77 8.728C135.97 8.728 135.37 8.84 134.97 9.064C134.57 9.288 134.37 9.576 134.37 9.928C134.37 10.328 134.586 10.608 135.018 10.768C135.45 10.928 136.138 11.08 137.082 11.224C138.138 11.4 139.002 11.592 139.674 11.8C140.346 11.992 140.93 12.352 141.426 12.88C141.922 13.408 142.17 14.144 142.17 15.088C142.17 15.888 141.93 16.6 141.45 17.224C140.97 17.848 140.266 18.336 139.338 18.688C138.426 19.024 137.338 19.192 136.074 19.192Z" fill="url(#paint0_linear)"/>
<defs>
<linearGradient id="paint0_linear" x1="36.4069" y1="-4" x2="103.385" y2="-4" gradientUnits="userSpaceOnUse">
<stop stop-color="#26E1FB"/>
<stop offset="0.244792" stop-color="#00C1FF"/>
<stop offset="0.510417" stop-color="#3C94F0"/>
<stop offset="0.9375" stop-color="#B163EF"/>
</linearGradient>
</defs>
</svg>
